<svg xmlns="http://www.w3.org/2000/svg" viewBox="0 0 960 640" role="img" aria-labelledby="title desc">
  <title id="title">Machine Hip Abduction</title>
  <desc id="desc">Instructional silhouette seated in a hip abductor machine with thigh pads and arrows showing the knees pressing outward.</desc>
  <defs>
    <linearGradient id="bg" x1="0" y1="0" x2="1" y2="1"><stop stop-color="#080d14"/><stop offset="1" stop-color="#10131b"/></linearGradient>
    <filter id="glow"><feGaussianBlur stdDeviation="8" result="b"/><feMerge><feMergeNode in="b"/><feMergeNode in="SourceGraphic"/></feMerge></filter>
  </defs>
  <rect width="960" height="640" rx="36" fill="url(#bg)"/>
  <circle cx="480" cy="285" r="245" fill="none" stroke="#6c38a8" stroke-opacity=".18" stroke-width="2"/>
  <g fill="none" stroke="#d7dce5" stroke-width="24" stroke-linecap="round" stroke-linejoin="round">
    <circle cx="480" cy="122" r="42" fill="#d7dce5" stroke="none"/>
    <path d="M480 171v166"/>
    <path d="M480 238l-82 78"/>
    <path d="M480 238l82 78"/>
    <path d="M480 337l-116 70"/>
    <path d="M480 337l116 70"/>
    <path d="M364 407l-26 116"/>
    <path d="M596 407l26 116"/>
  </g>
  <g fill="none" stroke="#7b8796" stroke-width="16" stroke-linecap="round" stroke-linejoin="round">
    <path d="M316 346h328"/>
    <path d="M340 348v190M620 348v190"/>
    <path d="M277 244v196M683 244v196"/>
    <path d="M277 244h62M683 244h-62"/>
  </g>
  <g fill="#313b47" stroke="#b56cff" stroke-width="7">
    <rect x="315" y="355" width="72" height="98" rx="25"/>
    <rect x="573" y="355" width="72" height="98" rx="25"/>
  </g>
  <g fill="#b56cff" filter="url(#glow)">
    <path d="M305 402l-58-28 16 32-34 10 60 24z"/>
    <path d="M655 402l58-28-16 32 34 10-60 24z"/>
  </g>
  <text x="480" y="588" text-anchor="middle" fill="#f2f4f8" font-family="system-ui,Arial" font-size="31" font-weight="700" letter-spacing="1.5">MACHINE HIP ABDUCTION</text>
</svg>
